<?xml version="1.0" encoding="UTF-8" standalone="no"?>
<svg xmlns="http://www.w3.org/2000/svg" width="16" height="16" viewBox="0 0 16 16">
  <defs>
    <radialGradient id="powerStoneGrad" cx="50%" cy="50%" r="70%" fx="50%" fy="50%">
      <stop offset="0%" style="stop-color:#cc66ff;stop-opacity:1" />
      <stop offset="60%" style="stop-color:#9933cc;stop-opacity:1" />
      <stop offset="100%" style="stop-color:#660099;stop-opacity:1" />
    </radialGradient>
    <filter id="glow" x="-30%" y="-30%" width="160%" height="160%">
      <feGaussianBlur stdDeviation="0.8" result="blur" />
      <feComposite in="SourceGraphic" in2="blur" operator="over" />
    </filter>
    <linearGradient id="infectionGrad" x1="0%" y1="0%" x2="100%" y2="100%">
      <stop offset="0%" style="stop-color:#0fa;stop-opacity:0.7" />
      <stop offset="100%" style="stop-color:#0a8;stop-opacity:0.7" />
    </linearGradient>
  </defs>

  <!-- Base Stone -->
  <circle cx="8" cy="8" r="3.5" 
          fill="url(#powerStoneGrad)" stroke="#660099" stroke-width="0.3"/>
  
  <!-- Inner Facets -->
  <circle cx="8" cy="8" r="2" 
          stroke="#660099" stroke-width="0.2" fill="none" opacity="0.7"/>
  
  <!-- Nano Tech Infection Patterns -->
  <path d="M6,6 C7,5 9,5 10,6 C11,7 11,9 10,10 C9,11 7,11 6,10 C5,9 5,7 6,6 Z" 
        stroke="url(#infectionGrad)" stroke-width="0.4" fill="none" opacity="0.7"/>
  
  <!-- Infection Veins -->
  <path d="M5,8 L7,8 M9,8 L11,8 M8,5 L8,7 M8,9 L8,11" 
        stroke="#0fa" stroke-width="0.3" opacity="0.8"/>
  
  <!-- Center Glow -->
  <circle cx="8" cy="8" r="1" fill="#0fa" opacity="0.4" filter="url(#glow)"/>
  
  <!-- Power Energy -->
  <circle cx="6.5" cy="6.5" r="0.2" fill="#c6f" opacity="0.8"/>
  <circle cx="9.5" cy="6.5" r="0.2" fill="#c6f" opacity="0.8"/>
  <circle cx="6.5" cy="9.5" r="0.2" fill="#c6f" opacity="0.8"/>
  <circle cx="9.5" cy="9.5" r="0.2" fill="#c6f" opacity="0.8"/>
  
  <!-- Infection Glow Points -->
  <circle cx="7" cy="7" r="0.2" fill="#0fa" opacity="0.8" filter="url(#glow)"/>
  <circle cx="9" cy="7" r="0.2" fill="#0fa" opacity="0.8" filter="url(#glow)"/>
  <circle cx="7" cy="9" r="0.2" fill="#0fa" opacity="0.8" filter="url(#glow)"/>
  <circle cx="9" cy="9" r="0.2" fill="#0fa" opacity="0.8" filter="url(#glow)"/>
  <circle cx="8" cy="8" r="0.3" fill="#0fa" opacity="0.8" filter="url(#glow)"/>
</svg>