<?xml version="1.0" encoding="UTF-8" standalone="no"?>
<svg xmlns="http://www.w3.org/2000/svg" width="16" height="16" viewBox="0 0 16 16">
  <defs>
    <radialGradient id="timeStoneGrad" cx="50%" cy="50%" r="70%" fx="50%" fy="50%">
      <stop offset="0%" style="stop-color:#00cc66;stop-opacity:1" />
      <stop offset="60%" style="stop-color:#009933;stop-opacity:1" />
      <stop offset="100%" style="stop-color:#006622;stop-opacity:1" />
    </radialGradient>
    <filter id="glow" x="-30%" y="-30%" width="160%" height="160%">
      <feGaussianBlur stdDeviation="0.8" result="blur" />
      <feComposite in="SourceGraphic" in2="blur" operator="over" />
    </filter>
    <linearGradient id="infectionGrad" x1="0%" y1="0%" x2="100%" y2="100%">
      <stop offset="0%" style="stop-color:#0fa;stop-opacity:0.7" />
      <stop offset="100%" style="stop-color:#0a8;stop-opacity:0.7" />
    </linearGradient>
  </defs>

  <!-- Base Stone -->
  <path d="M5,6 L8,4 L11,6 L11,10 L8,12 L5,10 Z" 
        fill="url(#timeStoneGrad)" stroke="#006622" stroke-width="0.3"/>
  
  <!-- Inner Facets -->
  <path d="M8,4 L8,12 M5,6 L11,6 M5,10 L11,10" 
        stroke="#006622" stroke-width="0.2" fill="none" opacity="0.7"/>
  
  <!-- Nano Tech Infection Patterns -->
  <path d="M7,5 C9,7 7,9 9,11" 
        stroke="url(#infectionGrad)" stroke-width="0.4" fill="none" opacity="0.7"/>
  <path d="M9,5 C7,7 9,9 7,11" 
        stroke="url(#infectionGrad)" stroke-width="0.4" fill="none" opacity="0.7"/>
  
  <!-- Infection Veins -->
  <path d="M6,6 L6,10 M10,6 L10,10" 
        stroke="#0fa" stroke-width="0.3" opacity="0.8"/>
  <path d="M7,5 L7,11 M9,5 L9,11" 
        stroke="#0fa" stroke-width="0.3" opacity="0.8"/>
  
  <!-- Center Glow -->
  <circle cx="8" cy="8" r="1.2" fill="#0fa" opacity="0.4" filter="url(#glow)"/>
  
  <!-- Time Energy -->
  <circle cx="6.5" cy="7" r="0.2" fill="#0c6" opacity="0.8"/>
  <circle cx="9.5" cy="7" r="0.2" fill="#0c6" opacity="0.8"/>
  <circle cx="6.5" cy="9" r="0.2" fill="#0c6" opacity="0.8"/>
  <circle cx="9.5" cy="9" r="0.2" fill="#0c6" opacity="0.8"/>
  
  <!-- Infection Glow Points -->
  <circle cx="7" cy="7" r="0.2" fill="#0fa" opacity="0.8" filter="url(#glow)"/>
  <circle cx="9" cy="7" r="0.2" fill="#0fa" opacity="0.8" filter="url(#glow)"/>
  <circle cx="7" cy="9" r="0.2" fill="#0fa" opacity="0.8" filter="url(#glow)"/>
  <circle cx="9" cy="9" r="0.2" fill="#0fa" opacity="0.8" filter="url(#glow)"/>
  <circle cx="8" cy="8" r="0.3" fill="#0fa" opacity="0.8" filter="url(#glow)"/>
</svg>