<?xml version="1.0" encoding="UTF-8" standalone="no"?>
<svg xmlns="http://www.w3.org/2000/svg" width="16" height="16" viewBox="0 0 16 16">
  <defs>
    <linearGradient id="gauntletGrad" x1="0%" y1="0%" x2="100%" y2="100%">
      <stop offset="0%" style="stop-color:#6a0dad;stop-opacity:1" />
      <stop offset="50%" style="stop-color:#4b006f;stop-opacity:1" />
      <stop offset="100%" style="stop-color:#300040;stop-opacity:1" />
    </linearGradient>
    <filter id="glow" x="-30%" y="-30%" width="160%" height="160%">
      <feGaussianBlur stdDeviation="0.8" result="blur" />
      <feComposite in="SourceGraphic" in2="blur" operator="over" />
    </filter>
  </defs>

  <!-- Gauntlet Base -->
  <path d="M4,3 L3,5 L3,10 L4,14 L11,14 L12,10 L12,5 L11,3 Z" 
        fill="url(#gauntletGrad)" stroke="#2a0030" stroke-width="0.3"/>
  
  <!-- Gauntlet Details -->
  <path d="M4,3 L5,6 L5,11 L4,14 M11,3 L10,6 L10,11 L11,14" 
        stroke="#2a0030" stroke-width="0.3" fill="none"/>
  
  <!-- Gauntlet Knuckles -->
  <path d="M5,6 L10,6 M5,11 L10,11" 
        stroke="#2a0030" stroke-width="0.3" fill="none"/>
  
  <!-- Infected Pattern -->
  <path d="M5,6 C5,5 6,4 7.5,4 C9,4 10,5 10,6 M5,11 C5,12 6,13 7.5,13 C9,13 10,12 10,11" 
        stroke="#5a0066" stroke-width="0.6" fill="none" opacity="0.8"/>
  
  <!-- Nano Tech Infection Veins -->
  <path d="M3,7 L5,7 M3,8 L5,8 M11,7 L12,7 M11,8 L12,8" 
        stroke="#0fa" stroke-width="0.4" fill="none" opacity="0.7" filter="url(#glow)"/>
  <path d="M6,3 L6,6 M8,3 L8,6 M6,11 L6,14 M8,11 L8,14" 
        stroke="#0fa" stroke-width="0.4" fill="none" opacity="0.7" filter="url(#glow)"/>
  
  <!-- Infected Stone Settings -->
  <circle cx="4.5" cy="7.5" r="1" fill="#3a0440" stroke="#0fa" stroke-width="0.2" opacity="0.9"/>
  <circle cx="7.5" cy="5" r="1" fill="#3a0440" stroke="#0fa" stroke-width="0.2" opacity="0.9"/>
  <circle cx="10.5" cy="7.5" r="1" fill="#3a0440" stroke="#0fa" stroke-width="0.2" opacity="0.9"/>
  <circle cx="4.5" cy="10.5" r="1" fill="#3a0440" stroke="#0fa" stroke-width="0.2" opacity="0.9"/>
  <circle cx="7.5" cy="12" r="1" fill="#3a0440" stroke="#0fa" stroke-width="0.2" opacity="0.9"/>
  <circle cx="10.5" cy="10.5" r="1" fill="#3a0440" stroke="#0fa" stroke-width="0.2" opacity="0.9"/>
  
  <!-- Glowing Effects -->
  <circle cx="4.5" cy="7.5" r="0.4" fill="#0fa" opacity="0.6" filter="url(#glow)"/>
  <circle cx="7.5" cy="5" r="0.4" fill="#0fa" opacity="0.6" filter="url(#glow)"/>
  <circle cx="10.5" cy="7.5" r="0.4" fill="#0fa" opacity="0.6" filter="url(#glow)"/>
  <circle cx="4.5" cy="10.5" r="0.4" fill="#0fa" opacity="0.6" filter="url(#glow)"/>
  <circle cx="7.5" cy="12" r="0.4" fill="#0fa" opacity="0.6" filter="url(#glow)"/>
  <circle cx="10.5" cy="10.5" r="0.4" fill="#0fa" opacity="0.6" filter="url(#glow)"/>
</svg>