<?xml version="1.0" encoding="UTF-8" standalone="no"?>
<svg width="16" height="16" xmlns="http://www.w3.org/2000/svg">
  <!-- Wormhole Generator Base -->
  <circle cx="8" cy="8" r="5" fill="#4B0082" />
  
  <!-- Outer Ring -->
  <circle cx="8" cy="8" r="6" fill="none" stroke="#9932CC" stroke-width="0.7" />
  
  <!-- Inner Ring -->
  <circle cx="8" cy="8" r="3" fill="none" stroke="#9370DB" stroke-width="0.5" />
  
  <!-- Wormhole Portal Effect -->
  <circle cx="8" cy="8" r="2" fill="#000066" />
  <circle cx="8" cy="8" r="1.5" fill="#000099" />
  <circle cx="8" cy="8" r="1" fill="#0000CC" />
  <circle cx="8" cy="8" r="0.5" fill="#FFFFFF" />
  
  <!-- Energy Sparks -->
  <line x1="4" y1="8" x2="6" y2="8" stroke="#FFFFFF" stroke-width="0.2" />
  <line x1="10" y1="8" x2="12" y2="8" stroke="#FFFFFF" stroke-width="0.2" />
  <line x1="8" y1="4" x2="8" y2="6" stroke="#FFFFFF" stroke-width="0.2" />
  <line x1="8" y1="10" x2="8" y2="12" stroke="#FFFFFF" stroke-width="0.2" />
  
  <!-- Spiral Effect -->
  <path d="M8,8 L9,7 L10,8 L9,9 Z" fill="#800080" opacity="0.6" />
  <path d="M8,8 L7,9 L6,8 L7,7 Z" fill="#800080" opacity="0.6" />
  
  <!-- Control Buttons -->
  <circle cx="4" cy="4" r="0.5" fill="#00FFFF" />
  <circle cx="12" cy="4" r="0.5" fill="#00FFFF" />
  <circle cx="4" cy="12" r="0.5" fill="#00FFFF" />
  <circle cx="12" cy="12" r="0.5" fill="#00FFFF" />
  
  <!-- Star Burst Effect -->
  <circle cx="8" cy="8" r="7" fill="none" stroke="#FFFFFF" stroke-width="0.1" stroke-dasharray="0.5,0.5" />
</svg>