<?xml version="1.0" encoding="UTF-8" standalone="no"?>
<svg width="16" height="16" viewBox="0 0 16 16" fill="none" xmlns="http://www.w3.org/2000/svg">
  <!-- Main Body (corrupted) -->
  <path d="M5 2H11V5L9 12H7L5 5V2Z" fill="#A0A0A0" stroke="#800080" stroke-width="0.3"/>
  
  <!-- Belt (corrupted) -->
  <rect x="4" y="2" width="8" height="1" fill="#808080" stroke="#600060" stroke-width="0.3"/>
  
  <!-- Tech Lines (corrupted) -->
  <path d="M6 3V10" stroke="#FF00FF" stroke-width="0.5"/>
  <path d="M10 3V10" stroke="#FF00FF" stroke-width="0.5"/>
  <path d="M6 6H10" stroke="#FF00FF" stroke-width="0.5"/>
  <path d="M7 9H9" stroke="#FF00FF" stroke-width="0.5"/>
  
  <!-- Corruption spots -->
  <circle cx="6" cy="5" r="0.7" fill="#FF00FF" fill-opacity="0.7"/>
  <circle cx="10" cy="5" r="0.7" fill="#FF00FF" fill-opacity="0.7"/>
  <circle cx="8" cy="8" r="0.6" fill="#FF00FF" fill-opacity="0.7"/>
  
  <!-- Energy Core (corrupted) -->
  <circle cx="8" cy="4" r="0.7" fill="#800080"/>
  
  <!-- Corruption aura -->
  <path d="M6 4C7 5 9 4 10 5" stroke="#FF00FF" stroke-width="0.3" stroke-opacity="0.6"/>
  <path d="M6 7C7 8 9 7 10 8" stroke="#FF00FF" stroke-width="0.3" stroke-opacity="0.6"/>
  
  <!-- Edge Highlights (corrupted) -->
  <path d="M5.5 2.5V5L7.5 11.5" stroke="#FF80FF" stroke-width="0.2"/>
  <path d="M10.5 2.5V5L8.5 11.5" stroke="#FF80FF" stroke-width="0.2"/>
</svg>