<?xml version="1.0" encoding="UTF-8" standalone="no"?>
<svg xmlns="http://www.w3.org/2000/svg" width="16" height="16" viewBox="0 0 16 16">
  <defs>
    <radialGradient id="mindStoneGrad" cx="50%" cy="50%" r="70%" fx="50%" fy="50%">
      <stop offset="0%" style="stop-color:#ffd700;stop-opacity:1" />
      <stop offset="60%" style="stop-color:#cc9900;stop-opacity:1" />
      <stop offset="100%" style="stop-color:#996600;stop-opacity:1" />
    </radialGradient>
    <filter id="glow" x="-30%" y="-30%" width="160%" height="160%">
      <feGaussianBlur stdDeviation="0.8" result="blur" />
      <feComposite in="SourceGraphic" in2="blur" operator="over" />
    </filter>
    <linearGradient id="infectionGrad" x1="0%" y1="0%" x2="100%" y2="100%">
      <stop offset="0%" style="stop-color:#0fa;stop-opacity:0.7" />
      <stop offset="100%" style="stop-color:#0a8;stop-opacity:0.7" />
    </linearGradient>
  </defs>

  <!-- Base Stone -->
  <rect x="5" y="4" width="6" height="8" 
        fill="url(#mindStoneGrad)" stroke="#996600" stroke-width="0.3"/>
  
  <!-- Facets -->
  <line x1="5" y1="8" x2="11" y2="8" stroke="#996600" stroke-width="0.2" opacity="0.7"/>
  <line x1="8" y1="4" x2="8" y2="12" stroke="#996600" stroke-width="0.2" opacity="0.7"/>
  
  <!-- Nano Tech Infection Patterns -->
  <path d="M5,6 C7,6 7,4 9,4 L11,4 M5,10 C7,10 7,12 9,12 L11,12" 
        stroke="url(#infectionGrad)" stroke-width="0.4" fill="none" opacity="0.7"/>
  
  <!-- Infection Veins -->
  <path d="M6,4 L6,6 M10,4 L10,6 M6,10 L6,12 M10,10 L10,12" 
        stroke="#0fa" stroke-width="0.3" opacity="0.8"/>
  <path d="M5,7 L7,7 M9,7 L11,7 M5,9 L7,9 M9,9 L11,9" 
        stroke="#0fa" stroke-width="0.3" opacity="0.8"/>
  
  <!-- Center Glow -->
  <circle cx="8" cy="8" r="1.2" fill="#0fa" opacity="0.4" filter="url(#glow)"/>
  
  <!-- Mind Energy -->
  <circle cx="7" cy="6" r="0.2" fill="#ff9" opacity="0.8"/>
  <circle cx="9" cy="10" r="0.2" fill="#ff9" opacity="0.8"/>
  <circle cx="7" cy="10" r="0.2" fill="#ff9" opacity="0.8"/>
  <circle cx="9" cy="6" r="0.2" fill="#ff9" opacity="0.8"/>
  
  <!-- Infection Glow Points -->
  <circle cx="7" cy="7" r="0.2" fill="#0fa" opacity="0.8" filter="url(#glow)"/>
  <circle cx="9" cy="9" r="0.2" fill="#0fa" opacity="0.8" filter="url(#glow)"/>
  <circle cx="7" cy="9" r="0.2" fill="#0fa" opacity="0.8" filter="url(#glow)"/>
  <circle cx="9" cy="7" r="0.2" fill="#0fa" opacity="0.8" filter="url(#glow)"/>
  <circle cx="8" cy="8" r="0.3" fill="#0fa" opacity="0.8" filter="url(#glow)"/>
</svg>