<?xml version="1.0" encoding="UTF-8" standalone="no"?>
<svg width="16" height="16" viewBox="0 0 16 16" fill="none" xmlns="http://www.w3.org/2000/svg">
  <!-- Base Helmet Shape (corrupted) -->
  <path d="M3 6C3 3.79086 5.01472 2 7.5 2H8.5C10.9853 2 13 3.79086 13 6V10H3V6Z" fill="#A0A0A0" stroke="#800080" stroke-width="0.3"/>
  
  <!-- Visor (corrupted) -->
  <path d="M5 7H11V9H5V7Z" fill="#800080" fill-opacity="0.7"/>
  
  <!-- Tech Lines (corrupted) -->
  <path d="M4 5H12M4 8H12" stroke="#FF00FF" stroke-width="0.5"/>
  <path d="M8 3V9" stroke="#FF00FF" stroke-width="0.5"/>
  
  <!-- Corruption spots -->
  <circle cx="6" cy="5" r="0.7" fill="#FF00FF" fill-opacity="0.7"/>
  <circle cx="10" cy="5" r="0.7" fill="#FF00FF" fill-opacity="0.7"/>
  <circle cx="8" cy="7" r="0.6" fill="#FF00FF" fill-opacity="0.7"/>
  
  <!-- Energy Core (corrupted) -->
  <circle cx="8" cy="4" r="0.8" fill="#800080"/>
  
  <!-- Corruption aura -->
  <path d="M5 3C7 4 9 3 11 4" stroke="#FF00FF" stroke-width="0.3" stroke-opacity="0.6"/>
  <path d="M5 4C7 5 9 4 11 5" stroke="#FF00FF" stroke-width="0.3" stroke-opacity="0.6"/>
  
  <!-- Edge Highlights (corrupted) -->
  <path d="M3.5 6C3.5 4 5.5 2.5 8 2.5C10.5 2.5 12.5 4 12.5 6" stroke="#FF80FF" stroke-width="0.2"/>
  
  <!-- Bottom Rim (corrupted) -->
  <path d="M3 9.5H13" stroke="#500050" stroke-width="0.5"/>
</svg>