<?xml version="1.0" encoding="UTF-8" standalone="no"?>
<svg width="16" height="16" viewBox="0 0 16 16" fill="none" xmlns="http://www.w3.org/2000/svg">
  <!-- Left Boot (corrupted) -->
  <path d="M3 11V8H7V11H3Z" fill="#A0A0A0" stroke="#800080" stroke-width="0.3"/>
  <path d="M3 11H7V12H3V11Z" fill="#808080" stroke="#600060" stroke-width="0.3"/>
  
  <!-- Right Boot (corrupted) -->
  <path d="M9 11V8H13V11H9Z" fill="#A0A0A0" stroke="#800080" stroke-width="0.3"/>
  <path d="M9 11H13V12H9V11Z" fill="#808080" stroke="#600060" stroke-width="0.3"/>
  
  <!-- Tech Lines Left (corrupted) -->
  <path d="M4 9V11" stroke="#FF00FF" stroke-width="0.5"/>
  <path d="M6 9V11" stroke="#FF00FF" stroke-width="0.5"/>
  <path d="M4 10H6" stroke="#FF00FF" stroke-width="0.5"/>
  
  <!-- Tech Lines Right (corrupted) -->
  <path d="M10 9V11" stroke="#FF00FF" stroke-width="0.5"/>
  <path d="M12 9V11" stroke="#FF00FF" stroke-width="0.5"/>
  <path d="M10 10H12" stroke="#FF00FF" stroke-width="0.5"/>
  
  <!-- Corruption spots -->
  <circle cx="4" cy="9" r="0.6" fill="#FF00FF" fill-opacity="0.7"/>
  <circle cx="12" cy="9" r="0.6" fill="#FF00FF" fill-opacity="0.7"/>
  <circle cx="8" cy="10" r="0.5" fill="#FF00FF" fill-opacity="0.7"/>
  
  <!-- Energy Cores (corrupted) -->
  <circle cx="5" cy="10" r="0.6" fill="#800080"/>
  <circle cx="11" cy="10" r="0.6" fill="#800080"/>
  
  <!-- Corruption aura -->
  <path d="M4 8.5C5 9.5 6 8.5 7 9.5" stroke="#FF00FF" stroke-width="0.3" stroke-opacity="0.6"/>
  <path d="M10 8.5C11 9.5 12 8.5 13 9.5" stroke="#FF00FF" stroke-width="0.3" stroke-opacity="0.6"/>
  
  <!-- Edge Highlights (corrupted) -->
  <path d="M3.5 8.5V11.5" stroke="#FF80FF" stroke-width="0.2"/>
  <path d="M9.5 8.5V11.5" stroke="#FF80FF" stroke-width="0.2"/>
</svg>