<?xml version="1.0" encoding="UTF-8" standalone="no"?>
<svg width="16" height="16" viewBox="0 0 16 16" fill="none" xmlns="http://www.w3.org/2000/svg">
  <!-- Handle (corrupted) -->
  <rect x="7" y="6" width="2" height="9" fill="#505050" stroke="#500050" stroke-width="0.2"/>
  
  <!-- Pickaxe Head Base (corrupted) -->
  <path d="M3 6H13V4H3V6Z" fill="#A0A0A0" stroke="#800080" stroke-width="0.2"/>
  
  <!-- Pickaxe Points (corrupted) -->
  <path d="M3 4L4 1H5L6 4H3Z" fill="#A0A0A0" stroke="#800080" stroke-width="0.2"/>
  <path d="M13 4L12 1H11L10 4H13Z" fill="#A0A0A0" stroke="#800080" stroke-width="0.2"/>
  
  <!-- Corruption spots -->
  <circle cx="5" cy="3" r="0.7" fill="#FF00FF" fill-opacity="0.7"/>
  <circle cx="11" cy="3" r="0.7" fill="#FF00FF" fill-opacity="0.7"/>
  <circle cx="8" cy="4" r="0.6" fill="#FF00FF" fill-opacity="0.7"/>
  
  <!-- Energy Core (corrupted) -->
  <circle cx="8" cy="5" r="1" fill="#800080"/>
  
  <!-- Energy Lines (corrupted) -->
  <path d="M8 2L8 6" stroke="#FF00FF" stroke-width="0.5"/>
  <path d="M5 3L11 3" stroke="#FF00FF" stroke-width="0.5"/>
  <path d="M4 5H12" stroke="#FF00FF" stroke-width="0.5"/>
  
  <!-- Corruption aura -->
  <path d="M4 2C6 3 7 2 9 3" stroke="#FF00FF" stroke-width="0.3" stroke-opacity="0.6"/>
  <path d="M7 1C9 2 10 1 12 2" stroke="#FF00FF" stroke-width="0.3" stroke-opacity="0.6"/>
  
  <!-- Edge Highlights (corrupted) -->
  <path d="M4.5 1.5L5.5 4" stroke="#FF80FF" stroke-width="0.2"/>
  <path d="M11.5 1.5L10.5 4" stroke="#FF80FF" stroke-width="0.2"/>
</svg>