<?xml version="1.0" encoding="UTF-8" standalone="no"?>
<svg width="16" height="16" viewBox="0 0 16 16" xmlns="http://www.w3.org/2000/svg">
  <!-- Red base for the command block -->
  <rect x="0" y="0" width="16" height="16" fill="#d50000" />
  
  <!-- Command pattern overlays -->
  <rect x="1" y="1" width="14" height="14" fill="#b30000" opacity="0.8" />
  
  <!-- Center circuit pattern -->
  <rect x="3" y="3" width="10" height="10" fill="#ff5252" />
  <rect x="4" y="4" width="8" height="8" fill="#d50000" />
  
  <!-- Command symbols -->
  <circle cx="8" cy="8" r="3" fill="#ffebee" />
  <rect x="7" y="5" width="2" height="6" fill="#d50000" />
  <rect x="5" y="7" width="6" height="2" fill="#d50000" />
  
  <!-- Circuit lines -->
  <line x1="1" y1="4" x2="3" y2="4" stroke="#ffcdd2" stroke-width="0.5" />
  <line x1="1" y1="8" x2="3" y2="8" stroke="#ffcdd2" stroke-width="0.5" />
  <line x1="1" y1="12" x2="3" y2="12" stroke="#ffcdd2" stroke-width="0.5" />
  
  <line x1="13" y1="4" x2="15" y2="4" stroke="#ffcdd2" stroke-width="0.5" />
  <line x1="13" y1="8" x2="15" y2="8" stroke="#ffcdd2" stroke-width="0.5" />
  <line x1="13" y1="12" x2="15" y2="12" stroke="#ffcdd2" stroke-width="0.5" />
  
  <line x1="4" y1="1" x2="4" y2="3" stroke="#ffcdd2" stroke-width="0.5" />
  <line x1="8" y1="1" x2="8" y2="3" stroke="#ffcdd2" stroke-width="0.5" />
  <line x1="12" y1="1" x2="12" y2="3" stroke="#ffcdd2" stroke-width="0.5" />
  
  <line x1="4" y1="13" x2="4" y2="15" stroke="#ffcdd2" stroke-width="0.5" />
  <line x1="8" y1="13" x2="8" y2="15" stroke="#ffcdd2" stroke-width="0.5" />
  <line x1="12" y1="13" x2="12" y2="15" stroke="#ffcdd2" stroke-width="0.5" />
  
  <!-- Glossy highlight -->
  <rect x="2" y="2" width="12" height="1" fill="#ffffff" opacity="0.2" />
  <rect x="2" y="2" width="1" height="12" fill="#ffffff" opacity="0.1" />
</svg>