<?xml version="1.0" encoding="UTF-8" standalone="no"?>
<svg xmlns="http://www.w3.org/2000/svg" width="16" height="16" viewBox="0 0 16 16">
  <!-- Base lightning shape -->
  <path d="M9,1 L7,7 L11,7 L5,15 L7,9 L3,9 Z" fill="#FFDD00" stroke="#FFFFFF" stroke-width="0.3" />
  
  <!-- Electric details -->
  <path d="M8,3 L7.5,5 L9,5 L7,9 L7.5,7 L6,7 Z" fill="#FFFFFF" fill-opacity="0.7" />
  
  <!-- Glowing effect -->
  <path d="M9,1 L7,7 L11,7 L5,15 L7,9 L3,9 Z" fill="none" stroke="#FFA500" stroke-width="0.5" stroke-opacity="0.8" />
  
  <!-- Crackling electricity effects -->
  <path d="M9,3 L10,4 M7,5 L5,6 M10,8 L12,7 M6,10 L4,11 M8,12 L9,14" 
        fill="none" stroke="#FFDD00" stroke-width="0.5" stroke-linecap="round" />
  
  <!-- Zeus Symbol (Omega) at the handle -->
  <path d="M7.5,1.5 C6.5,1.5 6,2 6,2.5 C6,3 6.5,3.5 7.5,3.5 C8.5,3.5 9,3 9,2.5 C9,2 8.5,1.5 7.5,1.5 Z" fill="none" stroke="#FFA500" stroke-width="0.3" />
  
  <!-- Lightning aura -->
  <circle cx="7.5" cy="8" r="5" fill="none" stroke="#FFDD00" stroke-width="0.2" stroke-dasharray="0.5,0.5" />
</svg>