<?xml version="1.0" encoding="UTF-8" standalone="no"?>
<svg xmlns="http://www.w3.org/2000/svg" width="16" height="16" viewBox="0 0 16 16">
  <!-- Base stone texture -->
  <rect width="16" height="16" fill="#7D7D7D" />
  
  <!-- Stone pattern -->
  <rect x="0" y="0" width="4" height="4" fill="#6A6A6A" />
  <rect x="8" y="0" width="4" height="4" fill="#6A6A6A" />
  <rect x="4" y="4" width="4" height="4" fill="#6A6A6A" />
  <rect x="12" y="4" width="4" height="4" fill="#6A6A6A" />
  <rect x="0" y="8" width="4" height="4" fill="#6A6A6A" />
  <rect x="8" y="8" width="4" height="4" fill="#6A6A6A" />
  <rect x="4" y="12" width="4" height="4" fill="#6A6A6A" />
  <rect x="12" y="12" width="4" height="4" fill="#6A6A6A" />
  
  <!-- Spikes -->
  <polygon points="2,2 2,8 4,8 4,2" fill="#4C4C4C" />
  <polygon points="2,2 2,4 0,4 0,2" fill="#4C4C4C" />
  <polygon points="2,2 4,2 4,0 2,0" fill="#4C4C4C" />
  
  <polygon points="8,2 8,8 10,8 10,2" fill="#4C4C4C" />
  <polygon points="8,2 8,4 6,4 6,2" fill="#4C4C4C" />
  <polygon points="8,2 10,2 10,0 8,0" fill="#4C4C4C" />
  
  <polygon points="14,2 14,8 16,8 16,2" fill="#4C4C4C" />
  <polygon points="14,2 14,4 12,4 12,2" fill="#4C4C4C" />
  <polygon points="14,2 16,2 16,0 14,0" fill="#4C4C4C" />
  
  <polygon points="2,14 2,16 4,16 4,14" fill="#4C4C4C" />
  <polygon points="2,14 2,12 0,12 0,14" fill="#4C4C4C" />
  <polygon points="2,14 4,14 4,16 2,16" fill="#4C4C4C" />
  
  <polygon points="8,14 8,16 10,16 10,14" fill="#4C4C4C" />
  <polygon points="8,14 8,12 6,12 6,14" fill="#4C4C4C" />
  <polygon points="8,14 10,14 10,16 8,16" fill="#4C4C4C" />
  
  <polygon points="14,14 14,16 16,16 16,14" fill="#4C4C4C" />
  <polygon points="14,14 14,12 12,12 12,14" fill="#4C4C4C" />
  <polygon points="14,14 16,14 16,16 14,16" fill="#4C4C4C" />
  
  <!-- Iron spikes -->
  <polygon points="3,3 4,1 5,3" fill="#A8A8A8" />
  <polygon points="7,3 8,1 9,3" fill="#A8A8A8" />
  <polygon points="11,3 12,1 13,3" fill="#A8A8A8" />
  <polygon points="3,7 4,5 5,7" fill="#A8A8A8" />
  <polygon points="7,7 8,5 9,7" fill="#A8A8A8" />
  <polygon points="11,7 12,5 13,7" fill="#A8A8A8" />
  <polygon points="3,11 4,9 5,11" fill="#A8A8A8" />
  <polygon points="7,11 8,9 9,11" fill="#A8A8A8" />
  <polygon points="11,11 12,9 13,11" fill="#A8A8A8" />
  <polygon points="3,15 4,13 5,15" fill="#A8A8A8" />
  <polygon points="7,15 8,13 9,15" fill="#A8A8A8" />
  <polygon points="11,15 12,13 13,15" fill="#A8A8A8" />
</svg>