<?xml version="1.0" encoding="UTF-8" standalone="no"?>
<svg xmlns="http://www.w3.org/2000/svg" width="16" height="16" viewBox="0 0 16 16">
  <!-- Sword Blade -->
  <path d="M8,1 L9,2 L9,11 L8,12 L7,11 L7,2 Z" fill="#CCCCCC" />
  
  <!-- Sword Tip -->
  <path d="M7,2 L8,0 L9,2" fill="#AAAAAA" />
  <line x1="8" y1="0" x2="8" y2="1" stroke="#AAAAAA" stroke-width="0.5" />
  
  <!-- Center line of the blade -->
  <line x1="8" y1="1" x2="8" y2="12" stroke="#999999" stroke-width="0.2" />
  
  <!-- Blood stains on the blade -->
  <path d="M7.5,5 C7.2,5 7,5.2 7.4,5.5 C7.8,5.8 7.6,6 7.3,5.8" fill="none" stroke="#990000" stroke-width="0.3" />
  <path d="M8.5,8 C9,8 9,8.5 8.6,8.4 C8.2,8.3 8.3,8.7 8.7,8.7" fill="none" stroke="#990000" stroke-width="0.3" />
  <path d="M7.2,3 C7,3.2 7.2,3.5 7.5,3.4" fill="none" stroke="#990000" stroke-width="0.3" />
  
  <!-- Sword Guard -->
  <rect x="6" y="11" width="4" height="1" fill="#AA0000" />
  
  <!-- Sword Handle -->
  <rect x="7.5" y="12" width="1" height="3" fill="#8B4513" />
  
  <!-- Sword Pommel -->
  <circle cx="8" cy="15" r="0.7" fill="#AA0000" />
  
  <!-- Ares symbol (circle with arrow/spear) -->
  <circle cx="8" cy="13.5" r="0.4" fill="none" stroke="#AA0000" stroke-width="0.2" />
  <path d="M8.3,13.2 L8.7,12.8" stroke="#AA0000" stroke-width="0.2" />
  <path d="M7.7,13.8 L7.3,14.2" stroke="#AA0000" stroke-width="0.2" />
  
  <!-- Blood aura effects -->
  <path d="M6,4 C5.5,3.5 6,3 6.5,3.5" stroke="#FF0000" stroke-width="0.1" stroke-opacity="0.5" />
  <path d="M10,6 C10.5,6.5 10,7 9.5,6.5" stroke="#FF0000" stroke-width="0.1" stroke-opacity="0.5" />
  
  <!-- Battle aura -->
  <circle cx="8" cy="7" r="3" fill="none" stroke="#FF0000" stroke-width="0.1" stroke-opacity="0.3" stroke-dasharray="0.5,0.5" />
</svg>