<?xml version="1.0" encoding="UTF-8" standalone="no"?>
<svg xmlns="http://www.w3.org/2000/svg" width="16" height="16" viewBox="0 0 16 16">
  <!-- Boot Outline -->
  <path d="M3,8 L3,13 L5,14 L11,14 L13,13 L13,8 L11,7 L5,7 Z" fill="#D2B48C" />
  
  <!-- Boot Interior Shadow -->
  <path d="M5,7 L5,13 L11,13 L11,7 Z" fill="#A0826C" />
  
  <!-- Boot Top Line -->
  <path d="M3,8 L5,7 L11,7 L13,8" fill="none" stroke="#8B4513" stroke-width="0.2" />
  
  <!-- Boot Side Details -->
  <line x1="3" y1="8" x2="3" y2="13" stroke="#8B4513" stroke-width="0.2" />
  <line x1="13" y1="8" x2="13" y2="13" stroke="#8B4513" stroke-width="0.2" />
  
  <!-- Sole Detail -->
  <path d="M3,13 L5,14 L11,14 L13,13" fill="none" stroke="#8B4513" stroke-width="0.2" />
  
  <!-- Left Wing -->
  <path d="M3,8 C2,7 1,7 1,8 C1,9 2,8 3,9" fill="#FFFFFF" />
  <path d="M3,9 C2,8 1,8 1,9 C1,10 2,9 3,10" fill="#FFFFFF" />
  <path d="M3,10 C2,9 1,9 1,10 C1,11 2,10 3,11" fill="#FFFFFF" />
  
  <!-- Right Wing -->
  <path d="M13,8 C14,7 15,7 15,8 C15,9 14,8 13,9" fill="#FFFFFF" />
  <path d="M13,9 C14,8 15,8 15,9 C15,10 14,9 13,10" fill="#FFFFFF" />
  <path d="M13,10 C14,9 15,9 15,10 C15,11 14,10 13,11" fill="#FFFFFF" />
  
  <!-- Wing Details -->
  <path d="M1,8 C1.2,8.2 1.5,8.3 2,8.5" fill="none" stroke="#DDDDDD" stroke-width="0.2" />
  <path d="M1,9 C1.2,9.2 1.5,9.3 2,9.5" fill="none" stroke="#DDDDDD" stroke-width="0.2" />
  <path d="M1,10 C1.2,10.2 1.5,10.3 2,10.5" fill="none" stroke="#DDDDDD" stroke-width="0.2" />
  
  <path d="M15,8 C14.8,8.2 14.5,8.3 14,8.5" fill="none" stroke="#DDDDDD" stroke-width="0.2" />
  <path d="M15,9 C14.8,9.2 14.5,9.3 14,9.5" fill="none" stroke="#DDDDDD" stroke-width="0.2" />
  <path d="M15,10 C14.8,10.2 14.5,10.3 14,10.5" fill="none" stroke="#DDDDDD" stroke-width="0.2" />
  
  <!-- Caduceus Symbol (Hermes' symbol) -->
  <line x1="8" y1="8" x2="8" y2="12" stroke="#FFD700" stroke-width="0.3" />
  <path d="M7,9 C6.5,8.5 6.5,8 7,7.5 C7.5,7 8.5,7 9,7.5 C9.5,8 9.5,8.5 9,9" fill="none" stroke="#FFD700" stroke-width="0.3" />
  <path d="M7,10.5 C6.5,10 6.5,9.5 7,9 C7.5,8.5 8.5,8.5 9,9 C9.5,9.5 9.5,10 9,10.5" fill="none" stroke="#FFD700" stroke-width="0.3" />
  
  <!-- Speed Trails -->
  <path d="M1,13 L3,13" stroke="#87CEEB" stroke-width="0.1" stroke-dasharray="0.2,0.2" />
  <path d="M13,13 L15,13" stroke="#87CEEB" stroke-width="0.1" stroke-dasharray="0.2,0.2" />
  
  <!-- Magical Glow -->
  <circle cx="8" cy="10" r="4" fill="none" stroke="#87CEEB" stroke-width="0.1" stroke-opacity="0.5" />
</svg>