<?xml version="1.0" encoding="UTF-8" standalone="no"?>
<svg xmlns="http://www.w3.org/2000/svg" width="16" height="16" viewBox="0 0 16 16">
  <!-- Trident Staff -->
  <rect x="7.5" y="2" width="1" height="14" fill="#0077be" />
  
  <!-- Trident Head Base -->
  <rect x="7" y="1" width="2" height="2" fill="#00a2e8" />
  
  <!-- Three Prongs -->
  <rect x="6" y="0" width="1" height="3" fill="#00a2e8" />
  <rect x="7.5" y="0" width="1" height="2" fill="#00a2e8" />
  <rect x="9" y="0" width="1" height="3" fill="#00a2e8" />
  
  <!-- Decorative details -->
  <rect x="7" y="3.5" width="2" height="0.5" fill="#00d2ff" />
  <rect x="7" y="5" width="2" height="0.5" fill="#00d2ff" />
  
  <!-- Water effects (waves) -->
  <path d="M5,7 C6,6.5 7,6.5 8,7 C9,7.5 10,7.5 11,7" 
        fill="none" stroke="#00d2ff" stroke-width="0.5" />
  <path d="M4,8 C5,7.5 6,7.5 7,8 C8,8.5 9,8.5 10,8 C11,7.5 12,7.5 13,8" 
        fill="none" stroke="#00d2ff" stroke-width="0.5" />
  
  <!-- Glowing details -->
  <path d="M6,0 L6,3 M7.5,0 L7.5,2 M9,0 L9,3" 
        fill="none" stroke="#FFFFFF" stroke-width="0.3" stroke-opacity="0.7" />
  
  <!-- Water droplets -->
  <circle cx="5" cy="9" r="0.3" fill="#00d2ff" />
  <circle cx="6" cy="10" r="0.2" fill="#00d2ff" />
  <circle cx="10" cy="9.5" r="0.3" fill="#00d2ff" />
  <circle cx="11" cy="10.5" r="0.2" fill="#00d2ff" />
  
  <!-- Poseidon's symbol (trident outline) at the bottom -->
  <path d="M7,14 L9,14 M6.5,12.5 L9.5,12.5 M8,12.5 L8,14" 
        fill="none" stroke="#00a2e8" stroke-width="0.3" />
</svg>