<?xml version="1.0" encoding="UTF-8" standalone="no"?>
<svg width="16" height="16" xmlns="http://www.w3.org/2000/svg">
  <!-- Stone Base -->
  <polygon points="8,2 12,6 12,10 8,14 4,10 4,6" fill="#222222" />
  
  <!-- Chaos Energy Inner Core -->
  <polygon points="8,4 10,6 10,10 8,12 6,10 6,6" fill="#660066" />
  
  <!-- Chaos Energy Surging Effect -->
  <polygon points="8,4 10,6 10,10 8,12 6,10 6,6" fill="none" stroke="#FF00FF" stroke-width="0.3" />
  
  <!-- Energy Flares -->
  <line x1="5" y1="5" x2="3" y2="3" stroke="#FF00FF" stroke-width="0.3" />
  <line x1="11" y1="5" x2="13" y2="3" stroke="#FF00FF" stroke-width="0.3" />
  <line x1="5" y1="11" x2="3" y2="13" stroke="#FF00FF" stroke-width="0.3" />
  <line x1="11" y1="11" x2="13" y2="13" stroke="#FF00FF" stroke-width="0.3" />
  
  <!-- Chaotic Energy Pulses -->
  <circle cx="8" cy="8" r="2" fill="none" stroke="#CC00CC" stroke-width="0.2" />
  <circle cx="8" cy="8" r="3" fill="none" stroke="#990099" stroke-width="0.1" />
  <circle cx="8" cy="8" r="4" fill="none" stroke="#660066" stroke-width="0.1" />
  
  <!-- Central Energy Source -->
  <circle cx="8" cy="8" r="1" fill="#FFFFFF" opacity="0.7" />
  
  <!-- Swirling Chaos Pattern -->
  <path d="M8,7 Q9,8 8,9 Q7,8 8,7" fill="#FF00FF" opacity="0.5" />
  
  <!-- Unstable Energy Spots -->
  <circle cx="6.5" cy="6.5" r="0.3" fill="#FFFFFF" opacity="0.8" />
  <circle cx="9.5" cy="6.5" r="0.3" fill="#FFFFFF" opacity="0.8" />
  <circle cx="6.5" cy="9.5" r="0.3" fill="#FFFFFF" opacity="0.8" />
  <circle cx="9.5" cy="9.5" r="0.3" fill="#FFFFFF" opacity="0.8" />
</svg>