<?xml version="1.0" encoding="UTF-8" standalone="no"?>
<svg width="16" height="16" xmlns="http://www.w3.org/2000/svg">
  <!-- Device Base -->
  <rect x="3" y="6" width="10" height="4" rx="1" ry="1" fill="#444444" />
  
  <!-- Central Anti-Gravity Core -->
  <circle cx="8" cy="8" r="2" fill="#800080" />
  
  <!-- Gravity Field Lines -->
  <circle cx="8" cy="8" r="3" fill="none" stroke="#8A2BE2" stroke-width="0.2" stroke-dasharray="0.5,0.5" />
  <circle cx="8" cy="8" r="4" fill="none" stroke="#8A2BE2" stroke-width="0.1" stroke-dasharray="0.3,0.3" />
  
  <!-- Up Arrow (Anti-Gravity) -->
  <polygon points="8,3 9,5 7,5" fill="#00FF00" />
  <line x1="8" y1="3" x2="8" y2="6" stroke="#00FF00" stroke-width="0.5" />
  
  <!-- Down Arrow (Gravity) -->
  <polygon points="8,13 9,11 7,11" fill="#FF0000" />
  <line x1="8" y1="13" x2="8" y2="10" stroke="#FF0000" stroke-width="0.5" />
  
  <!-- Control Buttons -->
  <circle cx="5" cy="8" r="0.7" fill="#FFFF00" />
  <circle cx="11" cy="8" r="0.7" fill="#FFFF00" />
  
  <!-- Energy Indicators -->
  <rect x="4" y="6.5" width="1" height="1" fill="#00FFFF" />
  <rect x="11" y="6.5" width="1" height="1" fill="#00FFFF" />
  
  <!-- Device Details -->
  <rect x="3" y="6" width="10" height="0.5" fill="#333333" />
  <rect x="3" y="9.5" width="10" height="0.5" fill="#333333" />
  
  <!-- Field Effect -->
  <line x1="6" y1="4" x2="10" y2="12" stroke="#8A2BE2" stroke-width="0.2" stroke-dasharray="0.4,0.4" />
  <line x1="10" y1="4" x2="6" y2="12" stroke="#8A2BE2" stroke-width="0.2" stroke-dasharray="0.4,0.4" />
  
  <!-- Central Gravity Core Glow -->
  <circle cx="8" cy="8" r="1.5" fill="#9932CC" opacity="0.6" />
  <circle cx="8" cy="8" r="1" fill="#FFFFFF" opacity="0.5" />
</svg>