<?xml version="1.0" encoding="UTF-8" standalone="no"?>
<svg width="16" height="16" xmlns="http://www.w3.org/2000/svg">
  <!-- Staff Body -->
  <rect x="7.5" y="4" width="1" height="11" fill="#8B4513" />
  
  <!-- Staff Grip Detail -->
  <rect x="7" y="10" width="2" height="1" fill="#A0522D" />
  <rect x="7" y="12" width="2" height="1" fill="#A0522D" />
  
  <!-- Weather Orb Base -->
  <circle cx="8" cy="3" r="2" fill="#6495ED" />
  
  <!-- Cloud Effect in Orb -->
  <ellipse cx="7" cy="2.5" rx="0.8" ry="0.5" fill="#FFFFFF" opacity="0.8" />
  <ellipse cx="8" cy="2.5" rx="0.8" ry="0.5" fill="#FFFFFF" opacity="0.8" />
  <ellipse cx="9" cy="2.5" rx="0.8" ry="0.5" fill="#FFFFFF" opacity="0.8" />
  
  <!-- Sun Ray Effect -->
  <path d="M8,1 L8,0.5 M9.5,1.5 L9.8,1.2 M10,3 L10.5,3 M9.5,4.5 L9.8,4.8 M8,5 L8,5.5 M6.5,4.5 L6.2,4.8 M6,3 L5.5,3 M6.5,1.5 L6.2,1.2" 
        stroke="#FFD700" stroke-width="0.3" />
  
  <!-- Rain Effect -->
  <line x1="7" y1="3" x2="6.7" y2="3.5" stroke="#4169E1" stroke-width="0.2" />
  <line x1="8" y1="3" x2="7.7" y2="3.5" stroke="#4169E1" stroke-width="0.2" />
  <line x1="9" y1="3" x2="8.7" y2="3.5" stroke="#4169E1" stroke-width="0.2" />
  
  <!-- Lightning Effect -->
  <path d="M8.3,1.7 L7.8,2.7 L8.2,2.7 L7.7,3.7" stroke="#FFFF00" stroke-width="0.3" />
  
  <!-- Energy Glow -->
  <circle cx="8" cy="3" r="2.3" fill="none" stroke="#87CEEB" stroke-width="0.2" />
  
  <!-- Top Orb Mount -->
  <rect x="7.5" y="3.8" width="1" height="0.5" fill="#CD853F" />
  
  <!-- Bottom Staff End -->
  <rect x="7" y="14.5" width="2" height="0.5" fill="#A0522D" />
</svg>