<?xml version="1.0" encoding="UTF-8" standalone="no"?>
<svg width="16" height="16" xmlns="http://www.w3.org/2000/svg">
  <!-- Glasses Frame -->
  <path d="M2,8 C2,6 3,5 5,5 C7,5 8,6 8,8 C8,6 9,5 11,5 C13,5 14,6 14,8" fill="none" stroke="#333333" stroke-width="1" />
  
  <!-- Glasses Ear Pieces -->
  <path d="M2,8 L1,9 L1,10" fill="none" stroke="#333333" stroke-width="0.7" />
  <path d="M14,8 L15,9 L15,10" fill="none" stroke="#333333" stroke-width="0.7" />
  
  <!-- Left Lens Frame -->
  <circle cx="5" cy="8" r="2.5" fill="none" stroke="#333333" stroke-width="0.7" />
  
  <!-- Right Lens Frame -->
  <circle cx="11" cy="8" r="2.5" fill="none" stroke="#333333" stroke-width="0.7" />
  
  <!-- Left Lens Glass with X-Ray Effect -->
  <circle cx="5" cy="8" r="2" fill="#00FFFF" opacity="0.4" />
  <circle cx="5" cy="8" r="1.5" fill="#00FFFF" opacity="0.3" />
  
  <!-- Right Lens Glass with X-Ray Effect -->
  <circle cx="11" cy="8" r="2" fill="#00FFFF" opacity="0.4" />
  <circle cx="11" cy="8" r="1.5" fill="#00FFFF" opacity="0.3" />
  
  <!-- Lens X-Ray Pattern - Left -->
  <line x1="3.5" y1="6.5" x2="6.5" y2="9.5" stroke="#FFFFFF" stroke-width="0.3" />
  <line x1="3.5" y1="9.5" x2="6.5" y2="6.5" stroke="#FFFFFF" stroke-width="0.3" />
  
  <!-- Lens X-Ray Pattern - Right -->
  <line x1="9.5" y1="6.5" x2="12.5" y2="9.5" stroke="#FFFFFF" stroke-width="0.3" />
  <line x1="9.5" y1="9.5" x2="12.5" y2="6.5" stroke="#FFFFFF" stroke-width="0.3" />
  
  <!-- Bridge Connection -->
  <path d="M7.5,8 C7.5,7.5 8.5,7.5 8.5,8" fill="none" stroke="#333333" stroke-width="0.5" />
  
  <!-- X-Ray Energy Glow -->
  <circle cx="5" cy="8" r="2.3" fill="none" stroke="#FFFFFF" stroke-width="0.1" />
  <circle cx="11" cy="8" r="2.3" fill="none" stroke="#FFFFFF" stroke-width="0.1" />
</svg>