<?xml version="1.0" encoding="UTF-8" standalone="no"?>
<svg width="16" height="16" xmlns="http://www.w3.org/2000/svg">
  <!-- Block Base -->
  <rect x="0" y="0" width="16" height="16" fill="#AA0000" />
  
  <!-- Darker Border -->
  <rect x="0" y="0" width="16" height="1" fill="#880000" />
  <rect x="0" y="0" width="1" height="16" fill="#880000" />
  <rect x="0" y="15" width="16" height="1" fill="#880000" />
  <rect x="15" y="0" width="1" height="16" fill="#880000" />
  
  <!-- Inner Section Highlight -->
  <rect x="1" y="1" width="14" height="14" fill="#CC0000" opacity="0.7" />
  
  <!-- Command Pattern - Enhanced Version -->
  <path d="M3,3 L13,3 L13,13 L3,13 Z" fill="none" stroke="#FF8800" stroke-width="0.7" />
  <path d="M5,5 L11,5 L11,11 L5,11 Z" fill="none" stroke="#FFCC00" stroke-width="0.5" />
  
  <!-- Command Circuitry -->
  <path d="M3,8 L13,8 M8,3 L8,13" stroke="#FFAA00" stroke-width="0.5" opacity="0.9" />
  <path d="M5,5 L11,11 M5,11 L11,5" stroke="#FFCC00" stroke-width="0.5" opacity="0.8" />
  
  <!-- Data Dots -->
  <circle cx="8" cy="8" r="1.2" fill="#FFFFFF" opacity="0.8" />
  <circle cx="4" cy="4" r="0.6" fill="#FFFF00" opacity="0.8" />
  <circle cx="12" cy="4" r="0.6" fill="#FFFF00" opacity="0.8" />
  <circle cx="4" cy="12" r="0.6" fill="#FFFF00" opacity="0.8" />
  <circle cx="12" cy="12" r="0.6" fill="#FFFF00" opacity="0.8" />
  
  <!-- Energy Flow -->
  <circle cx="8" cy="8" r="2" fill="none" stroke="#FFFFFF" stroke-width="0.3" opacity="0.6" />
  <circle cx="8" cy="8" r="3" fill="none" stroke="#FFFFFF" stroke-width="0.2" opacity="0.4" />
</svg>