<?xml version="1.0" encoding="UTF-8" standalone="no"?>
<svg xmlns="http://www.w3.org/2000/svg" width="16" height="16" viewBox="0 0 16 16">
  <defs>
    <radialGradient id="spaceStoneGrad" cx="50%" cy="50%" r="70%" fx="50%" fy="50%">
      <stop offset="0%" style="stop-color:#66f;stop-opacity:1" />
      <stop offset="60%" style="stop-color:#339;stop-opacity:1" />
      <stop offset="100%" style="stop-color:#116;stop-opacity:1" />
    </radialGradient>
    <filter id="glow" x="-30%" y="-30%" width="160%" height="160%">
      <feGaussianBlur stdDeviation="0.8" result="blur" />
      <feComposite in="SourceGraphic" in2="blur" operator="over" />
    </filter>
    <linearGradient id="infectionGrad" x1="0%" y1="0%" x2="100%" y2="100%">
      <stop offset="0%" style="stop-color:#0fa;stop-opacity:0.7" />
      <stop offset="100%" style="stop-color:#0a8;stop-opacity:0.7" />
    </linearGradient>
  </defs>

  <!-- Base Stone -->
  <polygon points="8,2 11,4 11,12 8,14 5,12 5,4" 
          fill="url(#spaceStoneGrad)" stroke="#116" stroke-width="0.3"/>
  
  <!-- Inner Facets -->
  <path d="M8,2 L8,14 M5,4 L11,4 M5,12 L11,12" 
        stroke="#116" stroke-width="0.2" fill="none" opacity="0.7"/>
  
  <!-- Nano Tech Infection Patterns -->
  <path d="M6,4 C6,6 4,8 6,10 C8,12 10,10 10,8 C10,6 8,4 6,4" 
        stroke="url(#infectionGrad)" stroke-width="0.4" fill="none" opacity="0.7"/>
  
  <!-- Infection Veins -->
  <path d="M7,2 L7,4 M9,2 L9,4 M7,12 L7,14 M9,12 L9,14" 
        stroke="#0fa" stroke-width="0.3" opacity="0.8"/>
  <path d="M5,5 L7,7 M5,11 L7,9 M11,5 L9,7 M11,11 L9,9" 
        stroke="#0fa" stroke-width="0.3" opacity="0.8"/>
  
  <!-- Center Glow -->
  <circle cx="8" cy="8" r="1.5" fill="#0fa" opacity="0.4" filter="url(#glow)"/>
  
  <!-- Space Energy (stars) -->
  <circle cx="7" cy="6" r="0.15" fill="white" opacity="0.9"/>
  <circle cx="9" cy="10" r="0.15" fill="white" opacity="0.9"/>
  <circle cx="10" cy="7" r="0.15" fill="white" opacity="0.9"/>
  <circle cx="6" cy="9" r="0.15" fill="white" opacity="0.9"/>
  <circle cx="8" cy="5" r="0.15" fill="white" opacity="0.9"/>
  <circle cx="8" cy="11" r="0.15" fill="white" opacity="0.9"/>
  
  <!-- Infection Glow Points -->
  <circle cx="7" cy="7" r="0.2" fill="#0fa" opacity="0.8" filter="url(#glow)"/>
  <circle cx="9" cy="9" r="0.2" fill="#0fa" opacity="0.8" filter="url(#glow)"/>
  <circle cx="8" cy="8" r="0.3" fill="#0fa" opacity="0.8" filter="url(#glow)"/>
</svg>