<svg width="16" height="16" viewBox="0 0 16 16" xmlns="http://www.w3.org/2000/svg">
  <defs>
    <radialGradient id="timeGradient" cx="50%" cy="50%" r="50%" fx="50%" fy="50%">
      <stop offset="0%" style="stop-color:#55FF55;stop-opacity:1" />
      <stop offset="60%" style="stop-color:#00BB00;stop-opacity:1" />
      <stop offset="100%" style="stop-color:#007700;stop-opacity:1" />
    </radialGradient>
  </defs>
  
  <!-- Base gem shape -->
  <polygon points="8,1 3,4 3,12 8,15 13,12 13,4" fill="url(#timeGradient)" stroke="#006600" stroke-width="0.3" />
  
  <!-- Facets and highlights -->
  <polygon points="8,1 5,3.5 8,6 11,3.5" fill="#99FF99" fill-opacity="0.7" />
  <polygon points="3,4 5,3.5 5,12.5 3,12" fill="#33AA33" fill-opacity="0.5" />
  <polygon points="13,4 11,3.5 11,12.5 13,12" fill="#33AA33" fill-opacity="0.5" />
  <polygon points="8,15 5,12.5 8,10 11,12.5" fill="#006600" fill-opacity="0.7" />
  
  <!-- Internal energy glow -->
  <polygon points="8,4 6,8 8,12 10,8" fill="#CCFFCC" fill-opacity="0.4" />
  
  <!-- Shines -->
  <circle cx="6" cy="5" r="0.6" fill="white" fill-opacity="0.8" />
  <circle cx="9.5" cy="7" r="0.3" fill="white" fill-opacity="0.6" />
</svg>
