<?xml version="1.0" encoding="UTF-8" standalone="no"?>
<svg xmlns="http://www.w3.org/2000/svg" width="16" height="16" viewBox="0 0 16 16">
  <!-- Bow body -->
  <path d="M4,3 C3,5 3,11 4,13 L5,12 C4.5,10 4.5,6 5,4 Z" fill="#8B4513" />
  <path d="M12,3 C13,5 13,11 12,13 L11,12 C11.5,10 11.5,6 11,4 Z" fill="#8B4513" />
  
  <!-- Bow string -->
  <path d="M4,3 C5,4 11,4 12,3" fill="none" stroke="#FFFFFF" stroke-width="0.2" />
  <path d="M4,13 C5,12 11,12 12,13" fill="none" stroke="#FFFFFF" stroke-width="0.2" />
  <path d="M5,4 L5,12" fill="none" stroke="#FFFFFF" stroke-width="0.2" />
  <path d="M11,4 L11,12" fill="none" stroke="#FFFFFF" stroke-width="0.2" />
  
  <!-- Arrow -->
  <line x1="5" y1="8" x2="11" y2="8" stroke="#BBBBBB" stroke-width="0.5" />
  <polygon points="11,7.7 12,8 11,8.3" fill="#BBBBBB" />
  <path d="M5,8 L4,8.5 L4,7.5 Z" fill="#666666" />
  
  <!-- Decorative elements -->
  <circle cx="5" cy="4" r="0.3" fill="#45818e" />
  <circle cx="5" cy="12" r="0.3" fill="#45818e" />
  <circle cx="11" cy="4" r="0.3" fill="#45818e" />
  <circle cx="11" cy="12" r="0.3" fill="#45818e" />
  
  <!-- Artemis symbol (moon) -->
  <path d="M8,5.5 A1,1 0 0 1 8,7.5 A1,1 0 0 0 8,5.5" fill="#45818e" />
  
  <!-- Moonlight glow effects -->
  <circle cx="8" cy="6.5" r="1.5" fill="none" stroke="#45818e" stroke-width="0.2" stroke-dasharray="0.3,0.3" />
  
  <!-- Arrow fletching detail -->
  <path d="M5,7.7 L4.5,7.5 L4.5,7 M5,8.3 L4.5,8.5 L4.5,9" fill="none" stroke="#666666" stroke-width="0.2" />
</svg>