<?xml version="1.0" encoding="UTF-8" standalone="no"?>
<svg xmlns="http://www.w3.org/2000/svg" width="16" height="16" viewBox="0 0 16 16">
  <!-- Spear Staff -->
  <rect x="7.5" y="3" width="1" height="13" fill="#8B4513" />
  
  <!-- Spear Head -->
  <path d="M5.5,0 L7.5,3 L8.5,3 L10.5,0 Z" fill="#CCCCCC" />
  <polygon points="7.5,3 8.5,3 8,0.5" fill="#999999" />
  
  <!-- Spear Details -->
  <line x1="5.5" y1="0" x2="8" y2="0.5" stroke="#CCCCCC" stroke-width="0.2" />
  <line x1="10.5" y1="0" x2="8" y2="0.5" stroke="#CCCCCC" stroke-width="0.2" />
  
  <!-- Shield Component -->
  <circle cx="8" cy="10" r="2.5" fill="none" stroke="#555555" stroke-width="0.5" />
  <circle cx="8" cy="10" r="2" fill="none" stroke="#666666" stroke-width="0.5" />
  <circle cx="8" cy="10" r="1.5" fill="none" stroke="#999999" stroke-width="0.5" />
  
  <!-- Owl symbol (Athena's symbol) -->
  <circle cx="8" cy="10" r="1" fill="#728FCE" fill-opacity="0.7" />
  <circle cx="7.5" cy="9.7" r="0.2" fill="#FFFFFF" />
  <circle cx="8.5" cy="9.7" r="0.2" fill="#FFFFFF" />
  <path d="M7.7,10 C7.7,10.3 8.3,10.3 8.3,10" fill="none" stroke="#FFFFFF" stroke-width="0.2" />
  
  <!-- Wisdom glow effect -->
  <circle cx="8" cy="10" r="3" fill="none" stroke="#728FCE" stroke-width="0.2" stroke-dasharray="0.5,0.5" />
  
  <!-- Decorative bands -->
  <rect x="7.25" y="4" width="1.5" height="0.3" fill="#555555" />
  <rect x="7.25" y="6" width="1.5" height="0.3" fill="#555555" />
  <rect x="7.25" y="13" width="1.5" height="0.3" fill="#555555" />
</svg>