<?xml version="1.0" encoding="UTF-8" standalone="no"?>
<svg xmlns="http://www.w3.org/2000/svg" width="16" height="16" viewBox="0 0 16 16">
  <!-- Lyre frame -->
  <path d="M5,4 C5,11 11,11 11,4 L10,5 C10,10 6,10 6,5 Z" fill="#DAA520" />
  
  <!-- Base of lyre -->
  <rect x="5" y="11" width="6" height="1" rx="0.5" fill="#DAA520" />
  
  <!-- Strings -->
  <line x1="6" y1="5" x2="6" y2="11" stroke="#FFFFFF" stroke-width="0.3" />
  <line x1="7" y1="5" x2="7" y2="11" stroke="#FFFFFF" stroke-width="0.3" />
  <line x1="8" y1="5" x2="8" y2="11" stroke="#FFFFFF" stroke-width="0.3" />
  <line x1="9" y1="5" x2="9" y2="11" stroke="#FFFFFF" stroke-width="0.3" />
  <line x1="10" y1="5" x2="10" y2="11" stroke="#FFFFFF" stroke-width="0.3" />
  
  <!-- Crossbar -->
  <rect x="5.5" y="5" width="5" height="0.5" rx="0.25" fill="#CD9B1D" />
  
  <!-- Decorative sun emblem -->
  <circle cx="8" cy="4" r="1" fill="#FFA500" />
  <path d="M8,2.5 L8.2,3 L7.8,3 Z M6.5,3 L7,3.2 L7,3.8 Z M9.5,3 L9,3.2 L9,3.8 Z M8,5.5 L8.2,5 L7.8,5 Z" fill="#FFA500" />
  
  <!-- Light effects -->
  <circle cx="8" cy="4" r="1.5" fill="none" stroke="#FFDB58" stroke-width="0.2" stroke-opacity="0.6" />
  <circle cx="8" cy="4" r="2" fill="none" stroke="#FFDB58" stroke-width="0.1" stroke-opacity="0.4" />
  
  <!-- Music note symbols -->
  <path d="M6.5,7 C6.5,7.5 7,7.5 7,7 L7,8.5 C7,9 6.5,9 6.5,8.5 Z" fill="#FFDB58" />
  <line x1="7" y1="7" x2="7" y2="7.5" stroke="#FFDB58" stroke-width="0.3" />
  
  <path d="M9.5,9 C9.5,9.5 9,9.5 9,9 L9,7.5 C9,7 9.5,7 9.5,7.5 Z" fill="#FFDB58" />
  <line x1="9" y1="9" x2="9" y2="8.5" stroke="#FFDB58" stroke-width="0.3" />
</svg>